<svg width="717" height="332" viewBox="0 0 717 332" fill="none" xmlns="http://www.w3.org/2000/svg">
<path d="M98.011 97.3718C99.6649 94.1498 100.923 92.4217 103.543 89.7733C108.519 84.744 113.113 83.6937 119.76 80.6178C134.571 73.7637 145.068 75.0689 160.688 69.8784C167.88 67.4888 171.878 66.0477 178.876 63.2286C188.621 59.3029 193.89 56.7063 203.258 52.0933C213.604 46.9984 219.667 44.0848 229.241 38.2356C240.587 31.3037 256.83 18.6734 256.83 18.6734C256.83 18.6734 261.113 15.6734 262.75 13.0182C264.374 10.3863 264.956 5.56535 264.956 5.56535" stroke="#626161" stroke-width="11" stroke-linecap="round" stroke-linejoin="round"/>
<path d="M141.75 84.4996C141.75 84.4996 133.047 94.5864 128.577 101.678C124.284 108.489 119.259 119.896 119.259 119.896L109.611 143.602C106.705 150.859 100.708 161.654 100.708 161.654L83.1378 192.446L60.5023 221.075C60.5023 221.075 51.0859 231.241 42.9686 234.986C40.3847 236.178 38.8509 236.707 36.1078 237.561C32.5809 238.66 30.5786 239.47 26.8575 239.717C23.8456 239.917 22.0867 239.832 19.1433 239.22C16.7266 238.717 15.3378 238.347 13.1852 237.235C10.1276 235.655 7.98033 234.577 6.62953 231.639C5.74082 229.707 5.81889 228.412 5.90791 226.321C6.20638 219.312 11.3723 216.176 17.1948 211.533C22.1478 207.584 31.9094 203.989 31.9094 203.989" stroke="#626161" stroke-width="11" stroke-linecap="round" stroke-linejoin="round"/>
<path d="M74.8055 167.751C74.8055 167.751 80.4534 165.02 84.3151 163.817C88.343 162.562 90.7098 162.048 94.9372 161.563C100.058 160.976 103.019 161.103 108.156 161.567C115.785 162.254 119.53 165.671 127.193 165.906C130.421 166.005 135.452 165.492 135.452 165.492" stroke="#626161" stroke-width="11" stroke-linecap="round" stroke-linejoin="round"/>
<path d="M136.612 209.045L138.178 221.791L139.156 226.621C139.156 226.621 141.105 233.81 144.558 237.052C145.473 237.91 147.1 239.062 147.1 239.062L166.529 218.695C166.529 218.695 186.581 198.579 196.042 194.615C198.414 193.621 202.295 192.453 202.295 192.453" stroke="#626161" stroke-width="11" stroke-linecap="round" stroke-linejoin="round"/>
<path d="M282 221.5C282 221.5 282.908 205.017 278.5 201.503C276.484 199.895 269.17 197.5 266.5 197.5C257 197.5 245.752 201.666 243 203.5C234 209.497 231.669 213.297 229 216C223.568 221.5 218.839 229.515 219.497 232.414C219.992 234.593 221.548 235.493 223.568 236.767C227.25 239.088 230.107 238.672 234.597 238.679C241.148 238.691 239.379 238.68 251.501 235.409C261.304 232.763 275.783 226.524 275.783 226.524" stroke="#626161" stroke-width="11" stroke-linecap="round" stroke-linejoin="round"/>
<path d="M280 203L282.607 215.5L282.607 218.664C282.607 218.664 282.312 221.809 282.621 223.793C283.99 232.58 295.784 239.407 300.528 239.763C308.18 240.338 318.061 231.739 318.061 231.739C318.061 231.739 342.588 210.93 354.719 202.191C371.66 189.987 391.996 167.341 391.996 167.341L399.677 158.868L383.135 177.739L372.107 194.103L329.111 247.907L312.122 268.619M312.122 268.619L303.038 276.363M312.122 268.619L321.576 258.894C321.576 258.894 355.908 231.683 374.792 222.301C377.26 221.075 379.25 220.216 382.049 219.929C384.404 219.686 386.543 220.058 388.429 221.357C389.799 222.3 390.648 226.157 389.491 228.962C388.846 230.526 387.222 230.831 386.751 232.444C386.254 234.144 386.449 235.357 387.357 236.912C388.211 238.374 389.063 239.266 390.801 239.782C392.477 240.28 393.56 239.675 395.296 239.401C399.515 238.734 400.042 238.393 402.818 237.163C405.612 235.925 408.9 233.962 412.367 231.389C415.531 229.04 419.842 224.746 419.842 224.746L437.808 206.877L438.235 209.707L437.758 215.803C437.758 215.803 436.818 221.128 436.836 224.565C436.849 227.137 436.9 228.601 437.411 231.131C437.756 232.839 437.557 233.996 438.624 235.44C439.353 236.428 439.873 237.048 441.079 237.519C442.103 237.919 442.803 237.755 443.917 237.819C456.336 238.537 463.381 232.31 472.928 225.479C491.033 212.525 508.191 200.001 527 177.485C535.199 167.671 542.061 159.14 549.299 148.727C553.69 142.41 556.254 138.919 560.326 132.429C563.756 126.963 565.606 123.856 568.675 118.217C571.465 113.092 573.643 110.388 571.446 105.896C570.215 103.379 565.171 102.951 561.02 103.521C556.115 104.194 550.73 108.811 547.549 111.695C541.594 117.095 532.743 128.986 524.842 140.991C515.295 155.497 511.712 161.743 504.68 176.536C500.459 185.416 497.173 192.425 494.664 201.006C492.513 208.364 489.724 211.262 490.222 218.108C490.7 224.673 492.106 230.044 496.602 233.941C500.023 236.906 503.025 238.444 507.762 238.261C512.776 238.068 514.475 235.971 518.919 232.507C523.263 229.122 526.121 225.261 530.076 220.995C536.178 214.413 544.602 202.372 544.602 202.372C544.602 202.372 536.308 211.331 536.451 218.118C536.501 220.492 536.149 221.336 537.615 224.106C538.691 226.14 541.125 229.873 544.609 232.512C549.2 235.99 552.782 237.751 558.774 237.844C566.486 237.962 576.308 232.519 584.277 226.531C588.637 223.254 597.662 215.837 597.662 215.837L606.589 205.18C606.589 205.18 597.971 213.164 595.098 220.229C594.129 222.612 592.964 224.018 593.346 226.533C593.774 229.352 594.727 231.717 597.291 233.942C599.02 235.442 601.743 237.482 605.273 238.246C608.07 238.851 611.185 238.93 614.838 238.229C617.982 237.625 620.941 237.039 624.395 235.334C627.289 233.905 628.63 232.675 631.127 230.729C636.439 226.59 640.273 224.398 643.017 218.567C645.038 214.27 648.068 210.672 645.213 206.777C643.943 205.044 642.909 203.672 640.622 203.44C638.693 203.245 635.025 203.382 632.285 205.096C629.303 206.963 626.87 209.076 627.522 212.3C627.969 214.513 629.351 215.583 631.379 216.889C632.966 217.911 634.102 218.199 636.003 218.58C639.76 219.331 640.111 219.377 643.852 218.566C648.966 217.456 652.273 214.249 658.191 212.813C662.268 211.824 667.157 207.818 668.872 211.302C669.5 212.579 669.276 213.486 669.095 214.874C668.751 217.515 666.318 221.24 664.221 225.189C661.371 230.557 656.029 238.518 656.029 238.518M656.029 238.518L656.507 238.169M656.029 238.518C656.029 238.518 668.339 229.142 677.164 224.406C681.77 221.934 684.17 220.013 689.31 218.643C692.244 217.861 693.967 217.518 697.025 217.41C700.011 217.305 701.843 217.12 704.645 218.059C706.834 218.793 708.262 219.271 709.714 220.921C711.854 223.353 711.565 225.7 711.088 228.774C710.426 233.036 707.471 236.788 704.704 240.29C698.276 248.427 693.161 252.347 685.032 258.255C678.799 262.784 675.417 264.625 669.023 268.357C664.668 270.9 653.881 276.762 643.573 281.07C629.572 286.922 618.602 290.362 603.828 294.378C591.578 297.709 529.107 315.726 479.557 320.503C423.816 325.877 412.623 327.817 369.575 325.015C345.143 323.424 310.268 311.745 312.211 302.088C314.154 292.431 326.109 287.349 337.586 284.772C346.667 282.734 356.926 284.434 366.279 284.722C377.804 285.077 395.428 288.988 395.428 288.988" stroke="#626161" stroke-width="11" stroke-linecap="round" stroke-linejoin="round"/>
<path d="M445.522 165.208L445.801 165.208L445.802 165.346" stroke="#626161" stroke-width="11" stroke-linecap="round" stroke-linejoin="round"/>
<path d="M567.145 165.758L566.224 163.949L567.309 163.352L565.617 164.506L566.855 166.774L565.803 166.861L567.143 166.392" stroke="#626161" stroke-width="11" stroke-linecap="round" stroke-linejoin="round"/>
</svg>
